{"title":"Clown.2014.LIMITED.1080p.BluRay.H264.AAC-RARBG","uid":11865365,"size":2041594330,"categoryP":"video","categoryS":"hd___movies","magnet":"?xt=urn:btih:0c20745ae4e214cdaa3dc93da4d5de7d9e02d3a7&amp;dn=Clown.2014.LIMITED.1080p.BluRay.H264.AAC-RARBG&amp;tr=udp%3A%2F%2Ftracker.openbittorrent.com%3A80&amp;tr=udp%3A%2F%2Fopen.demonii.com%3A1337&amp;tr=udp%3A%2F%2Ftracker.coppersurfer.tk%3A6969&amp;tr=udp%3A%2F%2Fexodus.desync.com%3A6969","seeders":1,"leechers":4,"uploader":"vickey1992","files":8,"time":1430334400,"description":"Video\nID                                       : 1\nFormat                                   : AVC\nFormat/Info                              : Advanced Video Codec\nFormat profile                           : &lt;a class=&quot;__cf_email__&quot; href=&quot;/cdn-cgi/l/email-protection&quot; data-cfemail=&quot;dc94b5bbb49c90e8f2ed&quot;&gt;[email&amp;#160;protected]&lt;/a&gt;&lt;script cf-hash='f9e31' type=&quot;text/javascript&quot;&gt;\n/* &lt;![CDATA[ */!function(){try{var t=&quot;currentScript&quot;in document?document.currentScript:function(){for(var t=document.getElementsByTagName(&quot;script&quot;),e=t.length;e--;)if(t[e].getAttribute(&quot;cf-hash&quot;))return t[e]}();if(t&amp;&amp;t.previousSibling){var e,r,n,i,c=t.previousSibling,a=c.getAttribute(&quot;data-cfemail&quot;);if(a){for(e=&quot;&quot;,r=parseInt(a.substr(0,2),16),n=2;a.length-n;n+=2)i=parseInt(a.substr(n,2),16)^r,e+=String.fromCharCode(i);e=document.createTextNode(e),c.parentNode.replaceChild(e,c)}}}catch(u){}}();/* ]]&gt; */&lt;/script&gt;\nFormat settings, CABAC                   : Yes\nFormat settings, ReFrames                : 4 frames\nCodec ID                                 : avc1\nCodec ID/Info                            : Advanced Video Coding\nDuration                                 : 1h 39mn\nBit rate                                 : 2 500 Kbps\nWidth                                    : 1 920 pixels\nHeight                                   : 1 080 pixels\nDisplay aspect ratio                     : 16:9\nFrame rate mode                          : Constant\nFrame rate                               : 23.976 fps\nColor space                              : YUV\nChroma subsampling                       : 4:2:0\nBit depth                                : 8 bits\nScan type                                : Progressive\nBits/(Pixel*Frame)                       : 0.050\nStream size                              : 1.73 GiB (92%)\nWriting library                          : x264 core 144 r2525M 40bb568\nEncoding settings                        : cabac=1 / ref=4 / deblock=1:-1:-1 / analyse=0x3:0x113 / me=umh / subme=9 / psy=1 / psy_rd=1.00:0.15 / mixed_ref=1 / me_range=24 / chroma_me=1 / trellis=2 / 8x8dct=1 / cqm=0 / deadzone=21,11 / fast_pskip=1 / chroma_qp_offset=-3 / threads=32 / lookahead_threads=4 / sliced_threads=0 / nr=0 / decimate=1 / interlaced=0 / bluray_compat=0 / constrained_intra=0 / bframes=3 / b_pyramid=2 / b_adapt=1 / b_bias=0 / direct=1 / weightb=1 / open_gop=0 / weightp=2 / keyint=250 / keyint_min=25 / scenecut=40 / intra_refresh=0 / rc_lookahead=50 / rc=2pass / mbtree=1 / bitrate=2500 / ratetol=1.0 / qcomp=0.60 / qpmin=0 / qpmax=69 / qpstep=4 / cplxblur=20.0 / qblur=0.5 / vbv_maxrate=31250 / vbv_bufsize=31250 / nal_hrd=none / filler=0 / ip_ratio=1.40 / aq=3:1.00\nEncoded date                             : UTC 1904-01-01 00:00:00\nTagged date                              : UTC 1904-01-01 00:00:00\n\nAudio\nID                                       : 2\nFormat                                   : AAC\nFormat/Info                              : Advanced Audio Codec\nFormat profile                           : LC\nCodec ID                                 : 40\nDuration                                 : 1h 39mn\nBit rate mode                            : Constant\nBit rate                                 : 224 Kbps\nChannel(s)                               : 2 channels\nChannel(s)_Original                      : 6 channels\nChannel positions                        : Front: L C R, Side: L R, LFE\nSampling rate                            : 48.0 KHz\nCompression mode                         : Lossy\nStream size                              : 159 MiB (8%)\nLanguage                                 : English\nEncoded date                             : UTC 1904-01-01 00:00:00\nTagged date                              : UTC 1904-01-01 00:00:00\n\nMenu #1\nID                                       : 3\nCodec ID                                 : text\nDuration                                 : 1h 39mn\nLanguage                                 : English\nEncoded date                             : UTC 1904-01-01 00:00:00\nTagged date                              : UTC 1904-01-01 00:00:00\nBit rate mode                            : CBR\n00:00:00.000                             : 00:00:00.000\n00:07:44.424                             : 00:07:44.381\n00:15:10.703                             : 00:15:10.660\n00:19:40.722                             : 00:19:40.679\n00:25:21.188                             : 00:25:21.145\n00:31:41.651                             : 00:31:41.608\n00:37:20.406                             : 00:37:20.363\n00:41:28.112                             : 00:41:28.069\n00:47:18.921                             : 00:47:18.878\n00:54:38.485                             : 00:54:38.442\n01:01:20.261                             : 01:01:20.218\n01:07:04.438                             : 01:07:04.395\n01:14:12.324                             : 01:14:12.281\n01:20:07.220                             : 01:20:07.177\n01:24:37.824                             : 01:24:37.781\n01:35:21.258                             : 01:35:21.215\n\nMenu #2\n00:00:00.043                             : 00:00:00.000\n00:07:44.424                             : 00:07:44.381\n00:15:10.703                             : 00:15:10.660\n00:19:40.722                             : 00:19:40.679\n00:25:21.188                             : 00:25:21.145\n00:31:41.651                             : 00:31:41.608\n00:37:20.406                             : 00:37:20.363\n00:41:28.112                             : 00:41:28.069\n00:47:18.921                             : 00:47:18.878\n00:54:38.485                             : 00:54:38.442\n01:01:20.261                             : 01:01:20.218\n01:07:04.438                             : 01:07:04.395\n01:14:12.324                             : 01:14:12.281\n01:20:07.220                             : 01:20:07.177\n01:24:37.824                             : 01:24:37.781\n01:35:21.258                             : 01:35:21.215","torrent":{"xt":"urn:btih:0c20745ae4e214cdaa3dc93da4d5de7d9e02d3a7","amp;dn":"Clown.2014.LIMITED.1080p.BluRay.H264.AAC-RARBG","amp;tr":["udp%3A%2F%2Ftracker.openbittorrent.com%3A80","udp%3A%2F%2Fopen.demonii.com%3A1337","udp%3A%2F%2Ftracker.coppersurfer.tk%3A6969","udp%3A%2F%2Fexodus.desync.com%3A6969"],"infoHash":"0c20745ae4e214cdaa3dc93da4d5de7d9e02d3a7","infoHashBuffer":{"type":"Buffer","data":[12,32,116,90,228,226,20,205,170,61,201,61,164,213,222,125,158,2,211,167]},"announce":[],"urlList":[]}}